<mxfile host="app.diagrams.net" modified="2023-12-18T12:50:52.373Z" agent="Mozilla/5.0 (Macintosh; Intel Mac OS X 10_15_7) AppleWebKit/537.36 (KHTML, like Gecko) Chrome/120.0.0.0 Safari/537.36" etag="V38aKBXxAe30RHt4L3Oq" version="22.1.11" type="github">
  <diagram name="Page-1" id="BiPi2jGZJl2mXwuXiOWJ">
    <mxGraphModel dx="1352" dy="795" grid="1" gridSize="10" guides="1" tooltips="1" connect="1" arrows="1" fold="1" page="0" pageScale="1" pageWidth="827" pageHeight="1169" math="0" shadow="0">
      <root>
        <mxCell id="0" />
        <mxCell id="1" parent="0" />
      </root>
    </mxGraphModel>
  </diagram>
</mxfile>
